<svg width="54" height="58" viewBox="0 0 54 58" fill="none" xmlns="http://www.w3.org/2000/svg">
<g filter="url(#filter0_d_2159_4125)">
<mask id="path-1-outside-1_2159_4125" maskUnits="userSpaceOnUse" x="1.44141" y="1" width="51" height="54" fill="black">
<rect fill="white" x="1.44141" y="1" width="51" height="54"/>
<path fill-rule="evenodd" clip-rule="evenodd" d="M39.0234 18.7418H36.5519V5L25.3721 19.8084C23.6084 20.5152 22.0108 21.5487 20.6543 22.834H16.8721C16.1425 22.834 15.551 23.4254 15.551 24.155V27.4576C15.551 28.167 16.1101 28.7457 16.8116 28.7773C16.2784 30.3127 15.9887 31.962 15.9887 33.6789V35.8697V38.1602H3.44141C3.44141 46.3547 10.0844 52.9977 18.2789 52.9977H32.519C32.8974 52.9977 33.2693 52.9694 33.6325 52.9147L34.3824 52.9186C42.6625 52.9622 49.3981 46.2619 49.3981 37.9817L49.3981 35.0734V28.769C50.052 28.6898 50.5586 28.1329 50.5586 27.4576V24.155C50.5586 23.4798 50.052 22.9228 49.3981 22.8436V5L39.0234 18.7418Z"/>
</mask>
<path fill-rule="evenodd" clip-rule="evenodd" d="M39.0234 18.7418H36.5519V5L25.3721 19.8084C23.6084 20.5152 22.0108 21.5487 20.6543 22.834H16.8721C16.1425 22.834 15.551 23.4254 15.551 24.155V27.4576C15.551 28.167 16.1101 28.7457 16.8116 28.7773C16.2784 30.3127 15.9887 31.962 15.9887 33.6789V35.8697V38.1602H3.44141C3.44141 46.3547 10.0844 52.9977 18.2789 52.9977H32.519C32.8974 52.9977 33.2693 52.9694 33.6325 52.9147L34.3824 52.9186C42.6625 52.9622 49.3981 46.2619 49.3981 37.9817L49.3981 35.0734V28.769C50.052 28.6898 50.5586 28.1329 50.5586 27.4576V24.155C50.5586 23.4798 50.052 22.9228 49.3981 22.8436V5L39.0234 18.7418Z" fill="url(#paint0_linear_2159_4125)"/>
<path d="M36.5519 18.7418H35.3019V19.9918H36.5519V18.7418ZM39.0234 18.7418V19.9918H39.646L40.0211 19.495L39.0234 18.7418ZM36.5519 5H37.8019V1.26973L35.5543 4.24683L36.5519 5ZM25.3721 19.8084L25.8371 20.9687L26.16 20.8393L26.3697 20.5616L25.3721 19.8084ZM20.6543 22.834V24.084H21.1524L21.514 23.7414L20.6543 22.834ZM16.8116 28.7773L17.9924 29.1873L18.5422 27.604L16.8679 27.5286L16.8116 28.7773ZM15.9887 38.1602V39.4102H17.2387V38.1602H15.9887ZM3.44141 38.1602V36.9102H2.19141V38.1602H3.44141ZM33.6325 52.9147L33.6391 51.6647L33.5423 51.6642L33.4465 51.6786L33.6325 52.9147ZM34.3824 52.9186L34.389 51.6687H34.389L34.3824 52.9186ZM49.3981 37.9817L48.1481 37.9817V37.9817H49.3981ZM49.3981 35.0734L50.6481 35.0734V35.0734H49.3981ZM49.3981 28.769L49.2478 27.5281L48.1481 27.6613V28.769H49.3981ZM49.3981 22.8436H48.1481V23.9514L49.2478 24.0846L49.3981 22.8436ZM49.3981 5H50.6481V1.26973L48.4005 4.24683L49.3981 5ZM36.5519 19.9918H39.0234V17.4918H36.5519V19.9918ZM35.3019 5V18.7418H37.8019V5H35.3019ZM26.3697 20.5616L37.5495 5.75317L35.5543 4.24683L24.3744 19.0553L26.3697 20.5616ZM21.514 23.7414C22.7579 22.5628 24.222 21.616 25.8371 20.9687L24.907 18.6481C22.9947 19.4145 21.2638 20.5346 19.7946 21.9266L21.514 23.7414ZM16.8721 24.084H20.6543V21.584H16.8721V24.084ZM16.801 24.155C16.801 24.1158 16.8328 24.084 16.8721 24.084V21.584C15.4521 21.584 14.301 22.7351 14.301 24.155H16.801ZM16.801 27.4576V24.155H14.301V27.4576H16.801ZM16.8679 27.5286C16.8311 27.5269 16.801 27.4954 16.801 27.4576H14.301C14.301 28.8385 15.389 29.9645 16.7553 30.026L16.8679 27.5286ZM17.2387 33.6789C17.2387 32.1035 17.5044 30.5927 17.9924 29.1873L15.6307 28.3673C15.0524 30.0328 14.7387 31.8205 14.7387 33.6789H17.2387ZM17.2387 35.8697V33.6789H14.7387V35.8697H17.2387ZM17.2387 38.1602V35.8697H14.7387V38.1602H17.2387ZM3.44141 39.4102H15.9887V36.9102H3.44141V39.4102ZM18.2789 51.7477C10.7747 51.7477 4.69141 45.6644 4.69141 38.1602H2.19141C2.19141 47.0451 9.39403 54.2477 18.2789 54.2477V51.7477ZM32.519 51.7477H18.2789V54.2477H32.519V51.7477ZM33.4465 51.6786C33.1446 51.7241 32.835 51.7477 32.519 51.7477V54.2477C32.9599 54.2477 33.394 54.2147 33.8186 54.1508L33.4465 51.6786ZM34.389 51.6687L33.6391 51.6647L33.626 54.1647L34.3759 54.1686L34.389 51.6687ZM48.1481 37.9817C48.1481 45.569 41.9762 51.7085 34.389 51.6687L34.3759 54.1686C43.3489 54.2158 50.6481 46.9549 50.6481 37.9817H48.1481ZM48.1481 35.0734L48.1481 37.9817L50.6481 37.9817L50.6481 35.0734L48.1481 35.0734ZM48.1481 28.769V35.0734H50.6481V28.769H48.1481ZM49.3086 27.4576C49.3086 27.4766 49.3029 27.4912 49.2909 27.5046C49.2779 27.5192 49.2625 27.5263 49.2478 27.5281L49.5483 30.01C50.8223 29.8557 51.8086 28.7728 51.8086 27.4576H49.3086ZM49.3086 24.155V27.4576H51.8086V24.155H49.3086ZM49.2478 24.0846C49.2625 24.0864 49.2779 24.0934 49.2909 24.1081C49.3029 24.1214 49.3086 24.1361 49.3086 24.155H51.8086C51.8086 22.8399 50.8223 21.757 49.5484 21.6027L49.2478 24.0846ZM48.1481 5V22.8436H50.6481V5H48.1481ZM40.0211 19.495L50.3957 5.75317L48.4005 4.24683L38.0258 17.9887L40.0211 19.495Z" fill="white" mask="url(#path-1-outside-1_2159_4125)"/>
</g>
<path fill-rule="evenodd" clip-rule="evenodd" d="M36.5519 18.7418H39.0234L49.3981 5V35.0734L49.3981 37.9817C49.3981 46.2619 42.6625 52.9622 34.3824 52.9186L33.6325 52.9147C33.2693 52.9694 32.8974 52.9977 32.519 52.9977H18.2789C10.0844 52.9977 3.44141 46.3547 3.44141 38.1602H15.9887V35.8697V33.6789C15.9887 27.3921 19.8727 22.0124 25.3721 19.8084L36.5519 5V18.7418Z" fill="#FF3464"/>
<path fill-rule="evenodd" clip-rule="evenodd" d="M36.5519 18.7418H39.0234L49.3981 5V35.0734L49.3981 37.9817C49.3981 46.2619 42.6625 52.9622 34.3824 52.9186L33.6325 52.9147C33.2693 52.9694 32.8974 52.9977 32.519 52.9977H18.2789C10.0844 52.9977 3.44141 46.3547 3.44141 38.1602H15.9887V35.8697V33.6789C15.9887 27.3921 19.8727 22.0124 25.3721 19.8084L36.5519 5V18.7418Z" fill="url(#paint1_linear_2159_4125)"/>
<path fill-rule="evenodd" clip-rule="evenodd" d="M36.5519 18.7418H39.0234L49.3981 5V35.0734L49.3981 37.9817C49.3981 46.2619 42.6625 52.9622 34.3824 52.9186L33.6325 52.9147C33.2693 52.9694 32.8974 52.9977 32.519 52.9977H18.2789C10.0844 52.9977 3.44141 46.3547 3.44141 38.1602H15.9887V35.8697V33.6789C15.9887 27.3921 19.8727 22.0124 25.3721 19.8084L36.5519 5V18.7418Z" fill="url(#paint2_radial_2159_4125)"/>
<path fill-rule="evenodd" clip-rule="evenodd" d="M36.6643 18.7418H39.1358L49.5105 5V35.0734L49.5105 37.9817C49.5105 46.2619 42.7749 52.9622 34.4948 52.9186L33.7452 52.9147C33.3819 52.9694 33.0101 52.9977 32.6316 52.9977H18.3916C10.197 52.9977 3.55405 46.3547 3.55405 38.1602H16.1011V35.8697V33.6789C16.1011 27.3921 19.9851 22.0124 25.4845 19.8084L36.6643 5V18.7418Z" fill="url(#paint3_radial_2159_4125)"/>
<path fill-rule="evenodd" clip-rule="evenodd" d="M12.9511 43.4383C12.9511 43.7408 12.7059 43.986 12.4034 43.986C12.1009 43.986 11.8557 43.7408 11.8557 43.4383C11.8557 43.1358 12.1009 42.8906 12.4034 42.8906C12.7059 42.8906 12.9511 43.1358 12.9511 43.4383ZM10.1134 43.4384C10.1134 43.7408 9.86818 43.9861 9.5657 43.9861C9.26322 43.9861 9.01801 43.7408 9.01801 43.4384C9.01801 43.1359 9.26322 42.8907 9.5657 42.8907C9.86818 42.8907 10.1134 43.1359 10.1134 43.4384ZM10.9596 45.9771C11.2621 45.9771 11.5073 45.7319 11.5073 45.4294C11.5073 45.127 11.2621 44.8818 10.9596 44.8818C10.6572 44.8818 10.412 45.127 10.412 45.4294C10.412 45.7319 10.6572 45.9771 10.9596 45.9771Z" fill="#191919"/>
<mask id="path-8-inside-2_2159_4125" fill="white">
<path d="M3.44147 37.6128H6.77359C7.32567 37.6128 7.77323 38.0603 7.77323 38.6124C7.77323 40.4527 6.28138 41.9446 4.4411 41.9446H3.44147V37.6128Z"/>
</mask>
<path d="M3.44147 37.6128H6.77359C7.32567 37.6128 7.77323 38.0603 7.77323 38.6124C7.77323 40.4527 6.28138 41.9446 4.4411 41.9446H3.44147V37.6128Z" fill="#191919"/>
<path d="M3.44147 37.6128H7.77323H3.44147ZM8.10349 38.8547C8.10349 40.7436 6.57226 42.2748 4.68339 42.2748H3.44147V41.6143H4.4411C6.09899 41.6143 7.44297 40.2703 7.44297 38.6124L8.10349 38.8547ZM3.44147 41.9446V37.6128V41.9446ZM6.86157 37.6128C7.54746 37.6128 8.10349 38.1688 8.10349 38.8547C8.10349 40.7436 6.57226 42.2748 4.68339 42.2748L4.4411 41.6143C6.09899 41.6143 7.44297 40.2703 7.44297 38.6124C7.44297 38.0603 7.14328 37.6128 6.77359 37.6128H6.86157Z" fill="white" mask="url(#path-8-inside-2_2159_4125)"/>
<path d="M24.3579 45.3075C24.9868 45.7204 25.8397 45.9524 26.7291 45.9524C27.6184 45.9524 28.4714 45.7204 29.1002 45.3075C29.7291 44.8946 30.0824 44.3346 30.0824 43.7507" stroke="#191919" stroke-width="0.660521" stroke-linecap="round"/>
<circle cx="33.3406" cy="34.8989" r="3.56001" fill="white"/>
<mask id="mask0_2159_4125" style="mask-type:alpha" maskUnits="userSpaceOnUse" x="29" y="31" width="8" height="8">
<circle cx="33.3406" cy="34.8989" r="3.56001" fill="white"/>
</mask>
<g mask="url(#mask0_2159_4125)">
<circle cx="34.2368" cy="34.8991" r="2.86294" fill="#191919"/>
</g>
<circle cx="24.3282" cy="34.8989" r="3.56001" fill="white"/>
<mask id="mask1_2159_4125" style="mask-type:alpha" maskUnits="userSpaceOnUse" x="20" y="31" width="8" height="8">
<circle cx="24.3282" cy="34.8989" r="3.56001" fill="white"/>
</mask>
<g mask="url(#mask1_2159_4125)">
<circle cx="25.2243" cy="34.8991" r="2.86294" fill="#191919"/>
</g>
<rect x="15.5511" y="22.834" width="35.0076" height="5.94469" rx="1.32104" fill="url(#paint4_linear_2159_4125)"/>
<path fill-rule="evenodd" clip-rule="evenodd" d="M43.513 34.8235C43.513 35.8541 42.72 36.7048 41.744 36.7048C40.7833 36.7048 39.9903 35.8541 39.9903 34.8235C39.9903 33.6947 41.073 32.255 41.744 31.4207C42.415 32.3041 43.513 33.6456 43.513 34.8235Z" fill="url(#paint5_linear_2159_4125)"/>
<path fill-rule="evenodd" clip-rule="evenodd" d="M47.0357 40.1076C47.0357 41.1383 46.2427 41.989 45.2667 41.989C44.3059 41.989 43.5129 41.1383 43.5129 40.1076C43.5129 38.9788 44.5956 37.5392 45.2667 36.7048C45.9376 37.5883 47.0357 38.9297 47.0357 40.1076Z" fill="url(#paint6_linear_2159_4125)"/>
<defs>
<filter id="filter0_d_2159_4125" x="0.191406" y="0.269775" width="53.6172" height="56.978" filterUnits="userSpaceOnUse" color-interpolation-filters="sRGB">
<feFlood flood-opacity="0" result="BackgroundImageFix"/>
<feColorMatrix in="SourceAlpha" type="matrix" values="0 0 0 0 0 0 0 0 0 0 0 0 0 0 0 0 0 0 127 0" result="hardAlpha"/>
<feOffset dy="1"/>
<feGaussianBlur stdDeviation="1"/>
<feComposite in2="hardAlpha" operator="out"/>
<feColorMatrix type="matrix" values="0 0 0 0 0 0 0 0 0 0 0 0 0 0 0 0 0 0 0.25 0"/>
<feBlend mode="normal" in2="BackgroundImageFix" result="effect1_dropShadow_2159_4125"/>
<feBlend mode="normal" in="SourceGraphic" in2="effect1_dropShadow_2159_4125" result="shape"/>
</filter>
<linearGradient id="paint0_linear_2159_4125" x1="50.5586" y1="25.8063" x2="15.551" y2="25.8063" gradientUnits="userSpaceOnUse">
<stop stop-color="#00D8ED"/>
<stop offset="1" stop-color="#E2FD52"/>
</linearGradient>
<linearGradient id="paint1_linear_2159_4125" x1="26.4196" y1="5" x2="26.4196" y2="52.9979" gradientUnits="userSpaceOnUse">
<stop offset="0.19272" stop-color="#191919"/>
<stop offset="0.29133" stop-color="#774DFF" stop-opacity="0"/>
</linearGradient>
<radialGradient id="paint2_radial_2159_4125" cx="0" cy="0" r="1" gradientUnits="userSpaceOnUse" gradientTransform="translate(3.44141 38.2462) rotate(-0.274141) scale(46.0168 44.0597)">
<stop offset="0.152306" stop-color="#191919"/>
<stop offset="0.283418" stop-color="#774DFF" stop-opacity="0"/>
</radialGradient>
<radialGradient id="paint3_radial_2159_4125" cx="0" cy="0" r="1" gradientUnits="userSpaceOnUse" gradientTransform="translate(3.55405 9.95391) rotate(43.0885) scale(63.0102 60.3303)">
<stop offset="0.786999" stop-color="white" stop-opacity="0"/>
<stop offset="1" stop-color="white"/>
</radialGradient>
<linearGradient id="paint4_linear_2159_4125" x1="50.5587" y1="25.8063" x2="15.5511" y2="25.8063" gradientUnits="userSpaceOnUse">
<stop stop-color="#00D8ED"/>
<stop offset="1" stop-color="#E2FD52"/>
</linearGradient>
<linearGradient id="paint5_linear_2159_4125" x1="41.7517" y1="31.4207" x2="41.7517" y2="36.7048" gradientUnits="userSpaceOnUse">
<stop stop-color="#EEFCFE"/>
<stop offset="1" stop-color="#00D8ED"/>
</linearGradient>
<linearGradient id="paint6_linear_2159_4125" x1="45.2743" y1="36.7048" x2="45.2743" y2="41.989" gradientUnits="userSpaceOnUse">
<stop stop-color="#EEFCFE"/>
<stop offset="1" stop-color="#00D8ED"/>
</linearGradient>
</defs>
</svg>
