<svg width="54" height="58" viewBox="0 0 54 58" fill="none" xmlns="http://www.w3.org/2000/svg">
<g filter="url(#filter0_d_2159_4227)">
<mask id="path-1-outside-1_2159_4227" maskUnits="userSpaceOnUse" x="1.96552" y="1" width="50" height="54" fill="black">
<rect fill="white" x="1.96552" y="1" width="50" height="54"/>
<path fill-rule="evenodd" clip-rule="evenodd" d="M38.2827 18.7423H37.076V5L27.5695 17.592L25.681 16.0617C25.5224 15.9333 25.2895 16.071 25.3257 16.2718L25.95 19.7371L25.8957 19.809C20.3965 22.013 16.5126 27.3926 16.5126 33.6794V35.8702V38.1607H3.96552C3.96552 46.3552 10.6085 52.9982 18.803 52.9982H33.0431C33.4216 52.9982 33.7934 52.9699 34.1567 52.9152L34.9063 52.9191C43.1864 52.9627 49.9219 46.2624 49.9219 37.9822L49.9219 35.0734V5L41.5077 16.1452L38.2827 18.7423Z"/>
</mask>
<path fill-rule="evenodd" clip-rule="evenodd" d="M38.2827 18.7423H37.076V5L27.5695 17.592L25.681 16.0617C25.5224 15.9333 25.2895 16.071 25.3257 16.2718L25.95 19.7371L25.8957 19.809C20.3965 22.013 16.5126 27.3926 16.5126 33.6794V35.8702V38.1607H3.96552C3.96552 46.3552 10.6085 52.9982 18.803 52.9982H33.0431C33.4216 52.9982 33.7934 52.9699 34.1567 52.9152L34.9063 52.9191C43.1864 52.9627 49.9219 46.2624 49.9219 37.9822L49.9219 35.0734V5L41.5077 16.1452L38.2827 18.7423Z" fill="#FF630D"/>
<path d="M37.076 18.7423H35.826V19.9923H37.076V18.7423ZM38.2827 18.7423V19.9923H38.7234L39.0667 19.7159L38.2827 18.7423ZM37.076 5H38.326V1.26973L36.0784 4.24683L37.076 5ZM27.5695 17.592L26.7826 18.5632L27.7877 19.3776L28.5671 18.3451L27.5695 17.592ZM25.681 16.0617L26.468 15.0905L26.468 15.0905L25.681 16.0617ZM25.3257 16.2718L26.5559 16.0502L26.5559 16.0502L25.3257 16.2718ZM25.95 19.7371L26.9477 20.4902L27.2772 20.0537L27.1802 19.5154L25.95 19.7371ZM25.8957 19.809L26.3608 20.9693L26.6837 20.8398L26.8934 20.5622L25.8957 19.809ZM16.5126 38.1607V39.4107H17.7626V38.1607H16.5126ZM3.96552 38.1607V36.9107H2.71552V38.1607H3.96552ZM34.1567 52.9152L34.1632 51.6652L34.0664 51.6647L33.9706 51.6791L34.1567 52.9152ZM34.9063 52.9191L34.9129 51.6692L34.9063 52.9191ZM49.9219 37.9822L48.6719 37.9822V37.9822H49.9219ZM49.9219 35.0734L51.1719 35.0734V35.0734H49.9219ZM49.9219 5H51.1719V1.26973L48.9243 4.24683L49.9219 5ZM41.5077 16.1452L42.2917 17.1187L42.4121 17.0217L42.5053 16.8983L41.5077 16.1452ZM37.076 19.9923H38.2827V17.4923H37.076V19.9923ZM35.826 5V18.7423H38.326V5H35.826ZM28.5671 18.3451L38.0736 5.75317L36.0784 4.24683L26.5719 16.8388L28.5671 18.3451ZM24.8941 17.0329L26.7826 18.5632L28.3565 16.6208L26.468 15.0905L24.8941 17.0329ZM26.5559 16.0502C26.7252 16.9897 25.6357 17.6339 24.8941 17.0329L26.468 15.0905C25.4092 14.2326 23.8539 15.1523 24.0955 16.4935L26.5559 16.0502ZM27.1802 19.5154L26.5559 16.0502L24.0955 16.4935L24.7198 19.9587L27.1802 19.5154ZM26.8934 20.5622L26.9477 20.4902L24.9524 18.9839L24.8981 19.0558L26.8934 20.5622ZM17.7626 33.6794C17.7626 27.9207 21.3195 22.9897 26.3608 20.9693L25.4307 18.6487C19.4735 21.0362 15.2626 26.8646 15.2626 33.6794H17.7626ZM17.7626 35.8702V33.6794H15.2626V35.8702H17.7626ZM17.7626 38.1607V35.8702H15.2626V38.1607H17.7626ZM3.96552 39.4107H16.5126V36.9107H3.96552V39.4107ZM18.803 51.7482C11.2988 51.7482 5.21552 45.6649 5.21552 38.1607H2.71552C2.71552 47.0456 9.91814 54.2482 18.803 54.2482V51.7482ZM33.0431 51.7482H18.803V54.2482H33.0431V51.7482ZM33.9706 51.6791C33.6687 51.7246 33.3591 51.7482 33.0431 51.7482V54.2482C33.484 54.2482 33.9181 54.2152 34.3427 54.1513L33.9706 51.6791ZM34.9129 51.6692L34.1632 51.6652L34.1501 54.1652L34.8997 54.1691L34.9129 51.6692ZM48.6719 37.9822C48.6719 45.5695 42.5001 51.709 34.9129 51.6692L34.8997 54.1691C43.8727 54.2163 51.1719 46.9554 51.1719 37.9822H48.6719ZM48.6719 35.0734L48.6719 37.9822L51.1719 37.9822L51.1719 35.0734L48.6719 35.0734ZM48.6719 5V35.0734H51.1719V5H48.6719ZM42.5053 16.8983L50.9196 5.75317L48.9243 4.24683L40.5101 15.392L42.5053 16.8983ZM39.0667 19.7159L42.2917 17.1187L40.7237 15.1716L37.4987 17.7688L39.0667 19.7159Z" fill="white" mask="url(#path-1-outside-1_2159_4227)"/>
</g>
<path fill-rule="evenodd" clip-rule="evenodd" d="M37.076 18.7423H39.5469L49.9219 5V35.0734L49.9219 37.9822C49.9219 46.2624 43.1864 52.9627 34.9063 52.9191L34.1567 52.9152C33.7934 52.9699 33.4216 52.9982 33.0431 52.9982H18.803C10.6085 52.9982 3.96552 46.3552 3.96552 38.1607H16.5126V35.8702V33.6794C16.5126 27.3926 20.3965 22.013 25.8957 19.809L37.076 5V18.7423Z" fill="#FF630D"/>
<path fill-rule="evenodd" clip-rule="evenodd" d="M37.076 18.7423H39.5469L49.9219 5V35.0734L49.9219 37.9822C49.9219 46.2624 43.1864 52.9627 34.9063 52.9191L34.1567 52.9152C33.7934 52.9699 33.4216 52.9982 33.0431 52.9982H18.803C10.6085 52.9982 3.96552 46.3552 3.96552 38.1607H16.5126V35.8702V33.6794C16.5126 27.3926 20.3965 22.013 25.8957 19.809L37.076 5V18.7423Z" fill="url(#paint0_linear_2159_4227)"/>
<path fill-rule="evenodd" clip-rule="evenodd" d="M37.076 18.7423H39.5469L49.9219 5V35.0734L49.9219 37.9822C49.9219 46.2624 43.1864 52.9627 34.9063 52.9191L34.1567 52.9152C33.7934 52.9699 33.4216 52.9982 33.0431 52.9982H18.803C10.6085 52.9982 3.96552 46.3552 3.96552 38.1607H16.5126V35.8702V33.6794C16.5126 27.3926 20.3965 22.013 25.8957 19.809L37.076 5V18.7423Z" fill="url(#paint1_radial_2159_4227)"/>
<path fill-rule="evenodd" clip-rule="evenodd" d="M37.1884 18.7423H39.6595L50.0345 5V35.0734H50.0343V37.9822C50.0343 46.2624 43.2988 52.9627 35.0187 52.9191L34.2693 52.9152C33.906 52.9699 33.5342 52.9982 33.1557 52.9982H18.9156C10.7211 52.9982 4.07812 46.3552 4.07812 38.1607H16.625V35.8702V33.6794C16.625 27.3926 20.5089 22.013 26.0081 19.809L37.1884 5V18.7423Z" fill="url(#paint2_radial_2159_4227)"/>
<circle cx="33.8645" cy="34.8989" r="3.56001" fill="white"/>
<mask id="mask0_2159_4227" style="mask-type:alpha" maskUnits="userSpaceOnUse" x="30" y="31" width="8" height="8">
<circle cx="33.8645" cy="34.8989" r="3.56001" fill="white"/>
</mask>
<g mask="url(#mask0_2159_4227)">
<circle cx="34.7608" cy="34.8993" r="2.86294" fill="#191919"/>
</g>
<circle cx="24.8526" cy="34.8989" r="3.56001" fill="white"/>
<mask id="mask1_2159_4227" style="mask-type:alpha" maskUnits="userSpaceOnUse" x="21" y="31" width="8" height="8">
<circle cx="24.8526" cy="34.8989" r="3.56001" fill="white"/>
</mask>
<g mask="url(#mask1_2159_4227)">
<circle cx="25.7487" cy="34.8993" r="2.86294" fill="#191919"/>
</g>
<path fill-rule="evenodd" clip-rule="evenodd" d="M13.4752 43.4381C13.4752 43.7406 13.23 43.9858 12.9275 43.9858C12.625 43.9858 12.3798 43.7406 12.3798 43.4381C12.3798 43.1356 12.625 42.8904 12.9275 42.8904C13.23 42.8904 13.4752 43.1356 13.4752 43.4381ZM10.6373 43.4381C10.6373 43.7406 10.392 43.9858 10.0896 43.9858C9.78708 43.9858 9.54187 43.7406 9.54187 43.4381C9.54187 43.1356 9.78708 42.8904 10.0896 42.8904C10.392 42.8904 10.6373 43.1356 10.6373 43.4381ZM11.4837 45.9776C11.7862 45.9776 12.0314 45.7324 12.0314 45.4299C12.0314 45.1275 11.7862 44.8822 11.4837 44.8822C11.1813 44.8822 10.9361 45.1275 10.9361 45.4299C10.9361 45.7324 11.1813 45.9776 11.4837 45.9776Z" fill="#191919"/>
<path fill-rule="evenodd" clip-rule="evenodd" d="M20.7201 42.8408C19.3589 42.8408 18.2555 43.9443 18.2555 45.3054C18.2555 46.6666 19.3589 47.7701 20.7201 47.7701H22.6865V42.8408H23.4334V47.7701H26.2715V42.8409L27.0184 42.8409V47.7701H29.8069C29.8234 47.7701 29.8399 47.77 29.8564 47.7698V42.8409L30.6033 42.8409L30.6033 47.7061C32.9469 47.3253 34.7361 45.292 34.7361 42.8408H20.7201Z" fill="white"/>
<path fill-rule="evenodd" clip-rule="evenodd" d="M33.4583 16.0804C33.5397 15.9188 33.7703 15.9188 33.8517 16.0804L35.9609 20.2701C36.0239 20.3954 36.1864 20.4306 36.2956 20.3426L41.6151 16.0587C41.7738 15.9309 42.0061 16.0687 41.9699 16.2693L40.2332 25.9057C40.2312 25.9167 40.2303 25.9278 40.2292 25.939C40.1641 26.5974 37.2446 27.1275 33.6526 27.1275C30.1371 27.1275 27.2658 26.6198 27.0841 25.9809C27.0834 25.9786 27.0813 25.977 27.0789 25.977C27.0762 25.977 27.074 25.9752 27.0736 25.9726L25.3258 16.2718C25.2896 16.071 25.5225 15.9333 25.6811 16.0617L30.9993 20.371C31.1085 20.4595 31.2714 20.4244 31.3346 20.299L33.4583 16.0804Z" fill="url(#paint3_linear_2159_4227)"/>
<defs>
<filter id="filter0_d_2159_4227" x="0.715515" y="0.269775" width="52.4564" height="56.9785" filterUnits="userSpaceOnUse" color-interpolation-filters="sRGB">
<feFlood flood-opacity="0" result="BackgroundImageFix"/>
<feColorMatrix in="SourceAlpha" type="matrix" values="0 0 0 0 0 0 0 0 0 0 0 0 0 0 0 0 0 0 127 0" result="hardAlpha"/>
<feOffset dy="1"/>
<feGaussianBlur stdDeviation="1"/>
<feComposite in2="hardAlpha" operator="out"/>
<feColorMatrix type="matrix" values="0 0 0 0 0 0 0 0 0 0 0 0 0 0 0 0 0 0 0.25 0"/>
<feBlend mode="normal" in2="BackgroundImageFix" result="effect1_dropShadow_2159_4227"/>
<feBlend mode="normal" in="SourceGraphic" in2="effect1_dropShadow_2159_4227" result="shape"/>
</filter>
<linearGradient id="paint0_linear_2159_4227" x1="26.9437" y1="5" x2="26.9437" y2="52.9982" gradientUnits="userSpaceOnUse">
<stop offset="0.19272" stop-color="#191919"/>
<stop offset="0.29133" stop-color="#FF3464" stop-opacity="0"/>
</linearGradient>
<radialGradient id="paint1_radial_2159_4227" cx="0" cy="0" r="1" gradientUnits="userSpaceOnUse" gradientTransform="translate(3.96551 38.2465) rotate(-0.274143) scale(46.0168 44.06)">
<stop offset="0.152306" stop-color="#191919"/>
<stop offset="0.283418" stop-color="#FF3464" stop-opacity="0"/>
</radialGradient>
<radialGradient id="paint2_radial_2159_4227" cx="0" cy="0" r="1" gradientUnits="userSpaceOnUse" gradientTransform="translate(4.07813 9.95394) rotate(43.0887) scale(63.0104 60.3305)">
<stop offset="0.786999" stop-color="white" stop-opacity="0"/>
<stop offset="1" stop-color="white"/>
</radialGradient>
<linearGradient id="paint3_linear_2159_4227" x1="25.4221" y1="16.0564" x2="41.8293" y2="27.4163" gradientUnits="userSpaceOnUse">
<stop offset="0.683683" stop-color="#FFE353"/>
<stop offset="1" stop-color="white"/>
</linearGradient>
</defs>
</svg>
