<svg width="58" height="58" viewBox="0 0 58 58" fill="none" xmlns="http://www.w3.org/2000/svg">
<g filter="url(#filter0_d_2159_4296)">
<mask id="path-1-outside-1_2159_4296" maskUnits="userSpaceOnUse" x="2.10266" y="1" width="52" height="54" fill="black">
<rect fill="white" x="2.10266" y="1" width="52" height="54"/>
<path fill-rule="evenodd" clip-rule="evenodd" d="M37.2134 18.1986C37.571 18.3156 37.9121 18.4968 38.2188 18.7423H39.6841L50.0591 5V20.6079C50.8893 20.8057 51.6396 21.3314 52.1 22.1289C52.9883 23.6675 52.4611 25.6349 50.9225 26.5232C50.7978 26.5952 50.7551 26.7547 50.8271 26.8794C51.6313 28.2724 51.2753 30.0168 50.0591 30.9937V35.0734L50.0591 37.9822C50.0591 46.2624 43.3236 52.9627 35.0435 52.9191L34.2907 52.9152C33.9284 52.9695 33.5576 52.9977 33.1802 52.9977H18.9402C18.1622 52.9977 17.3982 52.9378 16.6526 52.8225L16.6498 52.8224V52.822C9.54274 51.7208 4.10266 45.5758 4.10266 38.1602H16.6498V35.8702V33.6794C16.6498 32.3525 16.8228 31.066 17.1475 29.8413C16.1759 28.8352 15.9431 27.2705 16.6773 25.9989C16.7494 25.8741 16.7066 25.7146 16.5819 25.6426C15.0433 24.7543 14.5161 22.7869 15.4044 21.2483C15.9987 20.219 17.0758 19.6424 18.1845 19.6393C18.7332 19.6378 19.2896 19.7767 19.799 20.0708C19.8403 20.0947 19.8856 20.106 19.9301 20.1058C20.0198 20.1054 20.1069 20.0587 20.155 19.9754C20.7492 18.9461 21.8264 18.3695 22.9351 18.3664C23.4837 18.3649 24.0401 18.5038 24.5495 18.7979C25.0457 19.0844 25.4366 19.483 25.7089 19.9433C25.8164 19.8973 25.9245 19.8524 26.0332 19.8088L37.2134 5V18.1986Z"/>
</mask>
<path fill-rule="evenodd" clip-rule="evenodd" d="M37.2134 18.1986C37.571 18.3156 37.9121 18.4968 38.2188 18.7423H39.6841L50.0591 5V20.6079C50.8893 20.8057 51.6396 21.3314 52.1 22.1289C52.9883 23.6675 52.4611 25.6349 50.9225 26.5232C50.7978 26.5952 50.7551 26.7547 50.8271 26.8794C51.6313 28.2724 51.2753 30.0168 50.0591 30.9937V35.0734L50.0591 37.9822C50.0591 46.2624 43.3236 52.9627 35.0435 52.9191L34.2907 52.9152C33.9284 52.9695 33.5576 52.9977 33.1802 52.9977H18.9402C18.1622 52.9977 17.3982 52.9378 16.6526 52.8225L16.6498 52.8224V52.822C9.54274 51.7208 4.10266 45.5758 4.10266 38.1602H16.6498V35.8702V33.6794C16.6498 32.3525 16.8228 31.066 17.1475 29.8413C16.1759 28.8352 15.9431 27.2705 16.6773 25.9989C16.7494 25.8741 16.7066 25.7146 16.5819 25.6426C15.0433 24.7543 14.5161 22.7869 15.4044 21.2483C15.9987 20.219 17.0758 19.6424 18.1845 19.6393C18.7332 19.6378 19.2896 19.7767 19.799 20.0708C19.8403 20.0947 19.8856 20.106 19.9301 20.1058C20.0198 20.1054 20.1069 20.0587 20.155 19.9754C20.7492 18.9461 21.8264 18.3695 22.9351 18.3664C23.4837 18.3649 24.0401 18.5038 24.5495 18.7979C25.0457 19.0844 25.4366 19.483 25.7089 19.9433C25.8164 19.8973 25.9245 19.8524 26.0332 19.8088L37.2134 5V18.1986Z" fill="#DFFA51"/>
<path d="M38.2188 18.7423L37.4374 19.718L37.78 19.9923H38.2188V18.7423ZM37.2134 18.1986H35.9634V19.105L36.8249 19.3867L37.2134 18.1986ZM39.6841 18.7423V19.9923H40.3066L40.6817 19.4955L39.6841 18.7423ZM50.0591 5H51.3091V1.26973L49.0615 4.24683L50.0591 5ZM50.0591 20.6079H48.8091V21.5951L49.7694 21.8239L50.0591 20.6079ZM52.1 22.1289L53.1825 21.5039V21.5039L52.1 22.1289ZM50.9225 26.5232L51.5475 27.6057L51.5475 27.6057L50.9225 26.5232ZM50.8271 26.8794L51.9096 26.2544L51.9096 26.2544L50.8271 26.8794ZM50.0591 30.9937L49.2763 30.0192L48.8091 30.3944V30.9937H50.0591ZM50.0591 35.0734L51.3091 35.0734V35.0734H50.0591ZM50.0591 37.9822L48.8091 37.9822V37.9822H50.0591ZM35.0435 52.9191L35.05 51.6691H35.05L35.0435 52.9191ZM34.2907 52.9152L34.2972 51.6652L34.2006 51.6647L34.1051 51.679L34.2907 52.9152ZM16.6526 52.8225L16.8437 51.5872L16.7521 51.573L16.6594 51.5725L16.6526 52.8225ZM16.6498 52.8224H15.3998V54.0657L16.643 54.0724L16.6498 52.8224ZM16.6498 52.822H17.8998V51.7508L16.8412 51.5868L16.6498 52.822ZM4.10266 38.1602V36.9102H2.85266V38.1602H4.10266ZM16.6498 38.1602V39.4102H17.8998V38.1602H16.6498ZM17.1475 29.8413L18.3557 30.1616L18.5364 29.4801L18.0467 28.973L17.1475 29.8413ZM16.6773 25.9989L17.7599 26.6239L17.7599 26.6239L16.6773 25.9989ZM16.5819 25.6426L15.9569 26.7251L15.9569 26.7251L16.5819 25.6426ZM15.4044 21.2483L16.4869 21.8733L15.4044 21.2483ZM18.1845 19.6393L18.1879 20.8893H18.188L18.1845 19.6393ZM19.799 20.0708L20.424 18.9883V18.9883L19.799 20.0708ZM19.9301 20.1058L19.9348 21.3558L19.936 21.3558L19.9301 20.1058ZM20.155 19.9754L21.2375 20.6004L21.2375 20.6004L20.155 19.9754ZM22.9351 18.3664L22.9385 19.6164H22.9386L22.9351 18.3664ZM24.5495 18.7979L23.9245 19.8805L23.9245 19.8805L24.5495 18.7979ZM25.7089 19.9433L24.633 20.5797L25.192 21.5247L26.2012 21.0923L25.7089 19.9433ZM26.0332 19.8088L26.4982 20.9691L26.8212 20.8397L27.0309 20.562L26.0332 19.8088ZM37.2134 5H38.4634V1.26973L36.2158 4.24683L37.2134 5ZM39.0001 17.7666C38.574 17.4254 38.0993 17.1732 37.6019 17.0105L36.8249 19.3867C37.0427 19.4579 37.2502 19.5681 37.4374 19.718L39.0001 17.7666ZM38.2188 19.9923H39.6841V17.4923H38.2188V19.9923ZM40.6817 19.4955L51.0567 5.75317L49.0615 4.24683L38.6865 17.9891L40.6817 19.4955ZM48.8091 5V20.6079H51.3091V5H48.8091ZM53.1825 21.5039C52.5433 20.3967 51.4993 19.666 50.3488 19.3919L49.7694 21.8239C50.2793 21.9453 50.7359 22.2662 51.0174 22.7539L53.1825 21.5039ZM51.5475 27.6057C53.684 26.3722 54.416 23.6403 53.1825 21.5039L51.0174 22.7539C51.5606 23.6946 51.2383 24.8975 50.2975 25.4407L51.5475 27.6057ZM51.9096 26.2544C52.1828 26.7276 52.0207 27.3326 51.5475 27.6057L50.2975 25.4407C49.5749 25.8579 49.3273 26.7818 49.7445 27.5044L51.9096 26.2544ZM50.8419 31.9683C52.5316 30.611 53.0269 28.1896 51.9096 26.2544L49.7445 27.5044C50.2357 28.3551 50.0191 29.4225 49.2763 30.0192L50.8419 31.9683ZM48.8091 30.9937V35.0734H51.3091V30.9937H48.8091ZM48.8091 35.0734L48.8091 37.9822L51.3091 37.9822L51.3091 35.0734L48.8091 35.0734ZM48.8091 37.9822C48.8091 45.5695 42.6372 51.709 35.05 51.6691L35.0369 54.1691C44.0099 54.2163 51.3091 46.9554 51.3091 37.9822H48.8091ZM35.05 51.6691L34.2972 51.6652L34.2841 54.1652L35.0369 54.1691L35.05 51.6691ZM34.1051 51.679C33.8041 51.7242 33.4953 51.7477 33.1802 51.7477V54.2477C33.6199 54.2477 34.0527 54.2149 34.4762 54.1513L34.1051 51.679ZM33.1802 51.7477H18.9402V54.2477H33.1802V51.7477ZM18.9402 51.7477C18.2264 51.7477 17.5264 51.6928 16.8437 51.5872L16.4614 54.0577C17.2701 54.1829 18.098 54.2477 18.9402 54.2477V51.7477ZM16.6594 51.5725L16.6565 51.5725L16.643 54.0724L16.6458 54.0724L16.6594 51.5725ZM17.8998 52.8224V52.822H15.3998V52.8224H17.8998ZM16.8412 51.5868C10.334 50.5785 5.35266 44.9499 5.35266 38.1602H2.85266C2.85266 46.2017 8.75152 52.8631 16.4584 54.0573L16.8412 51.5868ZM4.10266 39.4102H16.6498V36.9102H4.10266V39.4102ZM17.8998 38.1602V35.8702H15.3998V38.1602H17.8998ZM17.8998 35.8702V33.6794H15.3998V35.8702H17.8998ZM17.8998 33.6794C17.8998 32.4616 18.0585 31.2828 18.3557 30.1616L15.9392 29.521C15.587 30.8493 15.3998 32.2434 15.3998 33.6794H17.8998ZM15.5948 25.3739C14.5744 27.1413 14.8997 29.313 16.2483 30.7096L18.0467 28.973C17.4521 28.3573 17.3119 27.3998 17.7599 26.6239L15.5948 25.3739ZM15.9569 26.7251C15.4837 26.452 15.3216 25.847 15.5948 25.3739L17.7599 26.6239C18.1771 25.9013 17.9295 24.9772 17.2069 24.56L15.9569 26.7251ZM14.3219 20.6233C13.0884 22.7598 13.8204 25.4916 15.9569 26.7251L17.2069 24.56C16.2661 24.0169 15.9438 22.814 16.4869 21.8733L14.3219 20.6233ZM18.1811 18.3893C16.6454 18.3935 15.1478 19.1927 14.3219 20.6233L16.4869 21.8733C16.8495 21.2453 17.5063 20.8912 18.1879 20.8893L18.1811 18.3893ZM20.424 18.9883C19.7184 18.5809 18.9443 18.3872 18.181 18.3893L18.188 20.8893C18.522 20.8884 18.8607 20.9725 19.174 21.1533L20.424 18.9883ZM19.9254 18.8558C20.0959 18.8552 20.2688 18.8987 20.424 18.9883L19.174 21.1533C19.4118 21.2907 19.6752 21.3568 19.9348 21.3558L19.9254 18.8558ZM19.0725 19.3504C19.2557 19.033 19.5879 18.8574 19.9243 18.8558L19.936 21.3558C20.4518 21.3534 20.9581 21.0843 21.2375 20.6004L19.0725 19.3504ZM22.9316 17.1164C21.3959 17.1206 19.8984 17.9198 19.0725 19.3504L21.2375 20.6004C21.6001 19.9724 22.2569 19.6183 22.9385 19.6164L22.9316 17.1164ZM25.1745 17.7154C24.469 17.308 23.6949 17.1143 22.9315 17.1164L22.9386 19.6164C23.2726 19.6155 23.6113 19.6996 23.9245 19.8805L25.1745 17.7154ZM26.7848 19.3069C26.4059 18.6665 25.8616 18.1121 25.1745 17.7154L23.9245 19.8805C24.2297 20.0566 24.4673 20.2996 24.633 20.5797L26.7848 19.3069ZM26.2012 21.0923C26.2996 21.0501 26.3986 21.009 26.4982 20.9691L25.5682 18.6485C25.4503 18.6958 25.3331 18.7444 25.2166 18.7943L26.2012 21.0923ZM27.0309 20.562L38.211 5.75317L36.2158 4.24683L25.0356 19.0557L27.0309 20.562ZM35.9634 5V18.1986H38.4634V5H35.9634Z" fill="white" mask="url(#path-1-outside-1_2159_4296)"/>
</g>
<path fill-rule="evenodd" clip-rule="evenodd" d="M37.2134 18.7423H39.6841L50.0591 5V35.0734L50.0591 37.9822C50.0591 46.2624 43.3236 52.9627 35.0435 52.9191L34.2907 52.9152C33.9284 52.9695 33.5576 52.9977 33.1802 52.9977H18.9402C18.1622 52.9977 17.3982 52.9378 16.6526 52.8225L16.6498 52.8224V52.822C9.54274 51.7208 4.10266 45.5758 4.10266 38.1602H16.6498V35.8702V33.6794C16.6498 27.3925 20.5338 22.0128 26.0332 19.8088L37.2134 5V18.7423Z" fill="#DFFA51"/>
<path fill-rule="evenodd" clip-rule="evenodd" d="M37.2135 18.7423H39.6842L50.0592 5V35.0734L50.0592 37.9822C50.0592 46.2624 43.3237 52.9627 35.0436 52.9191L34.2908 52.9152C33.9285 52.9695 33.5577 52.9977 33.1803 52.9977H18.9403C18.1623 52.9977 17.3983 52.9378 16.6527 52.8225L16.6499 52.8224V52.822C9.54286 51.7208 4.10278 45.5758 4.10278 38.1602H16.6499V35.8702V33.6794C16.6499 27.3925 20.5339 22.0128 26.0334 19.8088L37.2135 5V18.7423Z" fill="url(#paint0_linear_2159_4296)"/>
<path fill-rule="evenodd" clip-rule="evenodd" d="M37.2135 18.7423H39.6842L50.0592 5V35.0734L50.0592 37.9822C50.0592 46.2624 43.3237 52.9627 35.0436 52.9191L34.2908 52.9152C33.9285 52.9695 33.5577 52.9977 33.1803 52.9977H18.9403C18.1623 52.9977 17.3983 52.9378 16.6527 52.8225L16.6499 52.8224V52.822C9.54286 51.7208 4.10278 45.5758 4.10278 38.1602H16.6499V35.8702V33.6794C16.6499 27.3925 20.5339 22.0128 26.0334 19.8088L37.2135 5V18.7423Z" fill="url(#paint1_radial_2159_4296)"/>
<path fill-rule="evenodd" clip-rule="evenodd" d="M36.8636 5L25.6698 20.0367V20.178C20.6212 22.5745 17.1303 27.7193 17.1303 33.6795V35.8703V38.1604H4.21497C4.21497 46.3549 10.8579 52.9979 19.0525 52.9979H32.7831C33.1681 52.9979 33.5463 52.9686 33.9155 52.912L35.0566 52.9181C43.3371 52.9623 50.0733 46.2619 50.0733 37.9812V18.7424H49.5305V5L39.3002 18.7424H36.8636V5Z" fill="url(#paint2_radial_2159_4296)"/>
<circle cx="34.0019" cy="34.8994" r="3.56001" fill="white"/>
<mask id="mask0_2159_4296" style="mask-type:alpha" maskUnits="userSpaceOnUse" x="30" y="31" width="8" height="8">
<circle cx="34.0019" cy="34.8994" r="3.56001" fill="white"/>
</mask>
<g mask="url(#mask0_2159_4296)">
<circle cx="34.8985" cy="34.8991" r="2.86294" fill="#191919"/>
</g>
<circle cx="24.9899" cy="34.8994" r="3.56001" fill="white"/>
<mask id="mask1_2159_4296" style="mask-type:alpha" maskUnits="userSpaceOnUse" x="21" y="31" width="8" height="8">
<circle cx="24.9899" cy="34.8994" r="3.56001" fill="white"/>
</mask>
<g mask="url(#mask1_2159_4296)">
<circle cx="25.8858" cy="34.8991" r="2.86294" fill="#191919"/>
</g>
<path fill-rule="evenodd" clip-rule="evenodd" d="M10.7746 43.4381C10.7746 43.7406 10.5294 43.9858 10.227 43.9858C9.92447 43.9858 9.67926 43.7406 9.67926 43.4381C9.67926 43.1356 9.92447 42.8904 10.227 42.8904C10.5294 42.8904 10.7746 43.1356 10.7746 43.4381ZM13.6124 43.4381C13.6124 43.7406 13.3672 43.9858 13.0647 43.9858C12.7622 43.9858 12.517 43.7406 12.517 43.4381C12.517 43.1356 12.7622 42.8904 13.0647 42.8904C13.3672 42.8904 13.6124 43.1356 13.6124 43.4381ZM11.6209 45.9777C11.9234 45.9777 12.1686 45.7325 12.1686 45.43C12.1686 45.1275 11.9234 44.8823 11.6209 44.8823C11.3184 44.8823 11.0732 45.1275 11.0732 45.43C11.0732 45.7325 11.3184 45.9777 11.6209 45.9777Z" fill="#191919"/>
<mask id="path-14-inside-2_2159_4296" fill="white">
<path d="M4.10272 37.6133H7.43484C7.98693 37.6133 8.43448 38.0608 8.43448 38.6129C8.43448 40.4532 6.94264 41.945 5.10236 41.945H4.10272V37.6133Z"/>
</mask>
<path d="M4.10272 37.6133H7.43484C7.98693 37.6133 8.43448 38.0608 8.43448 38.6129C8.43448 40.4532 6.94264 41.945 5.10236 41.945H4.10272V37.6133Z" fill="#191919"/>
<path d="M4.10272 37.6133H8.43448H4.10272ZM8.76474 38.8552C8.76474 40.7441 7.23351 42.2753 5.34464 42.2753H4.10272V41.6148H5.10236C6.76024 41.6148 8.10422 40.2708 8.10422 38.6129L8.76474 38.8552ZM4.10272 41.945V37.6133V41.945ZM7.52282 37.6133C8.20872 37.6133 8.76474 38.1693 8.76474 38.8552C8.76474 40.7441 7.23351 42.2753 5.34464 42.2753L5.10236 41.6148C6.76024 41.6148 8.10422 40.2708 8.10422 38.6129C8.10422 38.0608 7.80453 37.6133 7.43484 37.6133H7.52282Z" fill="white" mask="url(#path-14-inside-2_2159_4296)"/>
<path d="M31.4043 43.3106C31.4043 44.0697 31.1027 44.7977 30.5659 45.3345C30.0292 45.8713 29.3011 46.1729 28.542 46.1729C27.7829 46.1729 27.0549 45.8713 26.5181 45.3345C25.9813 44.7977 25.6797 44.0697 25.6797 43.3106" stroke="#191919" stroke-width="0.660521" stroke-linecap="round"/>
<path d="M42.9551 19.6784C41.4165 20.5667 40.8893 22.5341 41.7776 24.0727C41.8497 24.1974 41.8069 24.3569 41.6822 24.429C40.1436 25.3173 39.6164 27.2846 40.5047 28.8233C41.393 30.3619 43.3604 30.889 44.899 30.0007C45.0238 29.9287 45.1833 29.9714 45.2553 30.0961C46.1436 31.6347 48.111 32.1619 49.6496 31.2736C51.1882 30.3853 51.7154 28.4179 50.8271 26.8793C50.755 26.7546 50.7978 26.5951 50.9225 26.5231C52.4611 25.6347 52.9883 23.6673 52.1 22.1287C51.2116 20.5901 49.2443 20.063 47.7057 20.9513C47.5809 21.0233 47.4214 20.9806 47.3494 20.8558C46.4611 19.3172 44.4937 18.7901 42.9551 19.6784Z" fill="white"/>
<path opacity="0.9" d="M42.9551 19.6784C41.4165 20.5667 40.8893 22.5341 41.7776 24.0727C41.8497 24.1974 41.8069 24.3569 41.6822 24.429C40.1436 25.3173 39.6164 27.2846 40.5047 28.8233C41.393 30.3619 43.3604 30.889 44.899 30.0007C45.0238 29.9287 45.1833 29.9714 45.2553 30.0961C46.1436 31.6347 48.111 32.1619 49.6496 31.2736C51.1882 30.3853 51.7154 28.4179 50.8271 26.8793C50.755 26.7546 50.7978 26.5951 50.9225 26.5231C52.4611 25.6347 52.9883 23.6673 52.1 22.1287C51.2116 20.5901 49.2443 20.063 47.7057 20.9513C47.5809 21.0233 47.4214 20.9806 47.3494 20.8558C46.4611 19.3172 44.4937 18.7901 42.9551 19.6784Z" fill="url(#paint3_linear_2159_4296)"/>
<ellipse opacity="0.9" cx="46.3333" cy="25.5305" rx="2.32513" ry="2.21944" transform="rotate(15 46.3333 25.5305)" fill="url(#paint4_linear_2159_4296)"/>
<path d="M29.0182 18.9814C27.7619 20.2376 27.7619 22.2744 29.0182 23.5307C29.12 23.6325 29.12 23.7977 29.0182 23.8995C27.7619 25.1558 27.7619 27.1926 29.0182 28.4488C30.2744 29.7051 32.3112 29.7051 33.5675 28.4488C33.6693 28.347 33.8345 28.347 33.9363 28.4488C35.1926 29.7051 37.2294 29.7051 38.4856 28.4488C39.7419 27.1926 39.7419 25.1558 38.4856 23.8995C38.3838 23.7976 38.3838 23.6325 38.4856 23.5307C39.7419 22.2744 39.7419 20.2376 38.4856 18.9814C37.2294 17.7251 35.1926 17.7251 33.9363 18.9814C33.8345 19.0832 33.6693 19.0832 33.5675 18.9813C32.3112 17.7251 30.2744 17.7251 29.0182 18.9814Z" fill="white"/>
<path opacity="0.9" d="M29.0182 18.9814C27.7619 20.2376 27.7619 22.2744 29.0182 23.5307C29.12 23.6325 29.12 23.7977 29.0182 23.8995C27.7619 25.1558 27.7619 27.1926 29.0182 28.4488C30.2744 29.7051 32.3112 29.7051 33.5675 28.4488C33.6693 28.347 33.8345 28.347 33.9363 28.4488C35.1926 29.7051 37.2294 29.7051 38.4856 28.4488C39.7419 27.1926 39.7419 25.1558 38.4856 23.8995C38.3838 23.7976 38.3838 23.6325 38.4856 23.5307C39.7419 22.2744 39.7419 20.2376 38.4856 18.9814C37.2294 17.7251 35.1926 17.7251 33.9363 18.9814C33.8345 19.0832 33.6693 19.0832 33.5675 18.9813C32.3112 17.7251 30.2744 17.7251 29.0182 18.9814Z" fill="url(#paint5_linear_2159_4296)"/>
<ellipse opacity="0.9" cx="33.7964" cy="23.7595" rx="2.32513" ry="2.21944" fill="url(#paint6_linear_2159_4296)"/>
<path d="M15.4046 21.2483C14.5163 22.7869 15.0435 24.7543 16.5821 25.6426C16.7068 25.7146 16.7496 25.8741 16.6775 25.9989C15.7892 27.5375 16.3164 29.5048 17.855 30.3932C19.3936 31.2815 21.361 30.7543 22.2493 29.2157C22.3213 29.091 22.4808 29.0482 22.6056 29.1202C24.1442 30.0085 26.1115 29.4814 26.9999 27.9428C27.8882 26.4042 27.361 24.4368 25.8224 23.5485C25.6977 23.4765 25.6549 23.317 25.727 23.1922C26.6153 21.6536 26.0881 19.6862 24.5495 18.7979C23.0109 17.9096 21.0435 18.4368 20.1552 19.9754C20.0832 20.1001 19.9237 20.1428 19.7989 20.0708C18.2603 19.1825 16.2929 19.7097 15.4046 21.2483Z" fill="white"/>
<path opacity="0.9" d="M15.4044 21.2483C14.5161 22.7869 15.0432 24.7543 16.5818 25.6426C16.7066 25.7146 16.7493 25.8741 16.6773 25.9989C15.789 27.5375 16.3161 29.5048 17.8547 30.3932C19.3933 31.2815 21.3607 30.7543 22.2491 29.2157C22.3211 29.091 22.4806 29.0482 22.6053 29.1202C24.1439 30.0085 26.1113 29.4814 26.9996 27.9428C27.8879 26.4042 27.3608 24.4368 25.8222 23.5485C25.6974 23.4765 25.6547 23.317 25.7267 23.1922C26.615 21.6536 26.0879 19.6862 24.5493 18.7979C23.0107 17.9096 21.0433 18.4368 20.155 19.9754C20.0829 20.1001 19.9234 20.1428 19.7987 20.0708C18.2601 19.1825 16.2927 19.7097 15.4044 21.2483Z" fill="url(#paint7_linear_2159_4296)"/>
<ellipse opacity="0.9" cx="21.2566" cy="24.6265" rx="2.32513" ry="2.21944" transform="rotate(-15 21.2566 24.6265)" fill="url(#paint8_linear_2159_4296)"/>
<defs>
<filter id="filter0_d_2159_4296" x="0.852661" y="0.269775" width="54.929" height="56.978" filterUnits="userSpaceOnUse" color-interpolation-filters="sRGB">
<feFlood flood-opacity="0" result="BackgroundImageFix"/>
<feColorMatrix in="SourceAlpha" type="matrix" values="0 0 0 0 0 0 0 0 0 0 0 0 0 0 0 0 0 0 127 0" result="hardAlpha"/>
<feOffset dy="1"/>
<feGaussianBlur stdDeviation="1"/>
<feComposite in2="hardAlpha" operator="out"/>
<feColorMatrix type="matrix" values="0 0 0 0 0 0 0 0 0 0 0 0 0 0 0 0 0 0 0.25 0"/>
<feBlend mode="normal" in2="BackgroundImageFix" result="effect1_dropShadow_2159_4296"/>
<feBlend mode="normal" in="SourceGraphic" in2="effect1_dropShadow_2159_4296" result="shape"/>
</filter>
<linearGradient id="paint0_linear_2159_4296" x1="27.081" y1="5" x2="27.081" y2="52.9979" gradientUnits="userSpaceOnUse">
<stop offset="0.19272" stop-color="#191919"/>
<stop offset="0.29133" stop-color="#00D8ED" stop-opacity="0"/>
</linearGradient>
<radialGradient id="paint1_radial_2159_4296" cx="0" cy="0" r="1" gradientUnits="userSpaceOnUse" gradientTransform="translate(4.10278 38.2462) rotate(-0.274141) scale(46.0168 44.0597)">
<stop offset="0.152306" stop-color="#191919"/>
<stop offset="0.283418" stop-color="#00D8ED" stop-opacity="0"/>
</radialGradient>
<radialGradient id="paint2_radial_2159_4296" cx="0" cy="0" r="1" gradientUnits="userSpaceOnUse" gradientTransform="translate(4.21497 9.95391) rotate(43.1496) scale(62.9385 60.2701)">
<stop offset="0.786999" stop-color="white" stop-opacity="0"/>
<stop offset="1" stop-color="white"/>
</radialGradient>
<linearGradient id="paint3_linear_2159_4296" x1="42.9551" y1="19.6784" x2="49.6496" y2="31.2736" gradientUnits="userSpaceOnUse">
<stop stop-color="#FF3464"/>
<stop offset="1" stop-color="#774DFF"/>
</linearGradient>
<linearGradient id="paint4_linear_2159_4296" x1="46.3333" y1="23.3111" x2="46.2889" y2="46.843" gradientUnits="userSpaceOnUse">
<stop offset="0.100372" stop-color="white"/>
<stop offset="0.36659" stop-color="#00D8ED"/>
</linearGradient>
<linearGradient id="paint5_linear_2159_4296" x1="29.0182" y1="18.9814" x2="38.4856" y2="28.4488" gradientUnits="userSpaceOnUse">
<stop stop-color="#FF630D"/>
<stop offset="1" stop-color="#FF3464"/>
</linearGradient>
<linearGradient id="paint6_linear_2159_4296" x1="33.7964" y1="21.54" x2="33.752" y2="45.072" gradientUnits="userSpaceOnUse">
<stop offset="0.100372" stop-color="#FFE353"/>
<stop offset="0.36659" stop-color="#FF3464"/>
</linearGradient>
<linearGradient id="paint7_linear_2159_4296" x1="15.4044" y1="21.2483" x2="26.9996" y2="27.9428" gradientUnits="userSpaceOnUse">
<stop stop-color="#FFE353"/>
<stop offset="0.994792" stop-color="#FF630D"/>
</linearGradient>
<linearGradient id="paint8_linear_2159_4296" x1="21.2566" y1="22.4071" x2="21.2121" y2="45.939" gradientUnits="userSpaceOnUse">
<stop offset="0.100372" stop-color="#FF630D"/>
<stop offset="0.36659" stop-color="#FF3464"/>
</linearGradient>
</defs>
</svg>
